<svg width="63" height="62" viewBox="0 0 63 62" fill="none" xmlns="http://www.w3.org/2000/svg">
<g clip-path="url(#clip0_1_1223)">
<path fill-rule="evenodd" clip-rule="evenodd" d="M40.8808 9.62982L61.7746 24.1414L35.4705 42.1944L42.3942 47.0033L2.79407 60.7022L19.6194 44.0136L11.17 38.1435L40.8808 9.62982Z" fill="black" stroke="black" stroke-width="4" stroke-linejoin="round"/>
<path fill-rule="evenodd" clip-rule="evenodd" d="M34.6861 34.9962L55.678 16.1791L45.0779 5.93674L32.6335 5.31213L6.8257 37.4643L0.919067 37.0944L16.1452 41.8548L2.36509 61.0903L39.1039 41.0482L34.6861 34.9962Z" fill="#FE950D" stroke="black" stroke-width="3" stroke-linejoin="round"/>
<path fill-rule="evenodd" clip-rule="evenodd" d="M20.0605 0.909546L45.0779 5.93674L24.8213 31.1818L33.1176 32.8495L2.36509 61.0903L11.0351 39.1259L0.919067 37.0944L20.0605 0.909546Z" fill="#FECE0D" stroke="black" stroke-width="3" stroke-linejoin="round"/>
<path d="M33.1176 32.8495L34.6861 34.9962" stroke="black" stroke-width="3" stroke-linejoin="round"/>
</g>
<defs>
<clipPath id="clip0_1_1223">
<rect width="63" height="62" fill="white"/>
</clipPath>
</defs>
</svg>
