<svg width="100%" height="100%" viewBox="0 0 93 93" fill="none" xmlns="http://www.w3.org/2000/svg">
<g clip-path="url(#clip0_1_1208)">
<path fill-rule="evenodd" clip-rule="evenodd" d="M30.6965 12.765L5.87087 27.3119L33.7455 50.2315L25.51 55.0573L84.5015 90.635L51.3858 53.7621L61.421 47.8816L30.6965 12.765Z" fill="black" stroke="black" stroke-width="4" stroke-linejoin="round"/>
<path fill-rule="evenodd" clip-rule="evenodd" d="M35.2955 42.1339L13.465 18.8315L26.3249 8.18569L40.3676 8.62431L66.3642 47.5048L73.0413 47.6334L55.4856 51.637L84.9505 91.1086L29.7615 48.5997L35.2955 42.1339Z" fill="#FE950D" stroke="black" stroke-width="3" stroke-linejoin="round"/>
<path fill-rule="evenodd" clip-rule="evenodd" d="M54.9034 4.78679L26.3249 8.18572L46.7341 38.7114L37.2594 39.8391L84.9505 91.1086L61.4872 49.0101L73.0413 47.6334L54.9034 4.78679Z" fill="#FECE0D" stroke="black" stroke-width="3" stroke-linejoin="round"/>
<path d="M37.2594 39.8391L35.2955 42.1339" stroke="black" stroke-width="3" stroke-linejoin="round"/>
</g>
<defs>
<clipPath id="clip0_1_1208">
<rect width="86.0149" height="85.2687" fill="white" transform="translate(6.97955 -6.10352e-05) rotate(4.69516)"/>
</clipPath>
</defs>
</svg>
