<svg width="85" height="77" viewBox="0 0 85 77" fill="none" xmlns="http://www.w3.org/2000/svg">
<g clip-path="url(#clip0_1_1213)">
<path fill-rule="evenodd" clip-rule="evenodd" d="M16.3208 50.4483L31.5242 71.0396L49.1721 44.2357L54.2184 51.0641L67.145 11.0317L50.6395 28.3048L44.4949 19.9775L16.3208 50.4483Z" fill="black" stroke="black" stroke-width="4" stroke-linejoin="round"/>
<path fill-rule="evenodd" clip-rule="evenodd" d="M41.8662 43.6229L23.3091 65.1209L12.6807 54.7434L11.7487 42.2837L43.7015 15.6352L43.186 9.72554L48.3739 24.8698L67.5219 10.5949L48.1027 47.9109L41.8662 43.6229Z" fill="#FE950D" stroke="black" stroke-width="3" stroke-linejoin="round"/>
<path fill-rule="evenodd" clip-rule="evenodd" d="M6.99374 29.7881L12.6807 54.7434L37.7663 33.8299L39.6541 42.1028L67.5219 10.5949L45.4864 19.8168L43.186 9.72554L6.99374 29.7881Z" fill="#FECE0D" stroke="black" stroke-width="3" stroke-linejoin="round"/>
<path d="M39.6541 42.1028L41.8663 43.6229" stroke="black" stroke-width="3" stroke-linejoin="round"/>
</g>
<defs>
<clipPath id="clip0_1_1213">
<rect width="69.4565" height="54.2443" fill="white" transform="translate(-6.10352e-05 26.7483) rotate(-22.6506)"/>
</clipPath>
</defs>
</svg>
