<svg width="104" height="92" viewBox="0 0 104 92" fill="none" xmlns="http://www.w3.org/2000/svg">
<g clip-path="url(#clip0_1_1218)">
<path fill-rule="evenodd" clip-rule="evenodd" d="M91.4554 68.575L80.2458 88.8556L50.5954 51.9514L46.8744 58.6751L10.7159 1.49866L47.4219 37.8164L52.8217 22.435L91.4554 68.575Z" fill="black" stroke="black" stroke-width="4" stroke-linejoin="round"/>
<path fill-rule="evenodd" clip-rule="evenodd" d="M57.0602 50.5462L86.911 82.5707L95.214 72.0064L95.9401 51.1754L53.0322 18.448L52.7984 13.0785L49.0513 34.4748L10.326 1.14917L51.9811 55.1255L57.0602 50.5462Z" fill="#FE950D" stroke="black" stroke-width="3" stroke-linejoin="round"/>
<path fill-rule="evenodd" clip-rule="evenodd" d="M98.7447 39.3941L95.214 72.0064L59.5926 41.2656L58.8666 48.9137L10.326 1.14917L51.9159 22.4101L52.7984 13.0785L98.7447 39.3941Z" fill="#FECE0D" stroke="black" stroke-width="3" stroke-linejoin="round"/>
<path d="M58.8665 48.9136L57.0601 50.5462" stroke="black" stroke-width="3" stroke-linejoin="round"/>
</g>
<defs>
<clipPath id="clip0_1_1218">
<rect width="94.5486" height="81.3738" fill="white" transform="translate(9.45068) rotate(6.66938)"/>
</clipPath>
</defs>
</svg>
