<svg width="100%" height="100%" viewBox="0 0 18 21" fill="none" xmlns="http://www.w3.org/2000/svg">
<path d="M17.5023 14.9928C17.7858 16.1691 17.4084 17.4203 15.6809 18.0193C13.7927 18.6741 13.4152 17.7381 12.0995 18.1944C10.7838 18.6508 11.0207 19.6356 9.13249 20.2904C7.40497 20.8896 6.38265 20.1241 5.93215 19.0055C5.34844 17.5562 6.23464 16.3993 6.6846 15.716C7.03687 15.1811 7.42821 14.5219 7.4595 13.5919C7.51298 12.0012 7.98565 10.616 9.5068 10.0884C11.0279 9.56068 12.204 10.3742 13.1626 11.6139C13.7231 12.3386 14.4159 12.6218 15.0058 12.8298C15.7596 13.096 17.135 13.4686 17.5023 14.9928Z" fill="currentColor"/>
<path d="M6.92835 9.35265C5.89269 10.0298 4.2061 9.17392 3.1612 7.44103C2.11629 5.70828 2.10876 3.7546 3.14456 3.07734C4.18022 2.40021 5.86668 3.25607 6.91158 4.98895C7.95636 6.72184 7.96388 8.67553 6.92835 9.35265Z" fill="currentColor"/>
<path d="M5.34537 14.2042C4.57284 15.0952 2.83213 14.7696 1.45727 13.4773C0.0824151 12.1848 -0.405973 10.4148 0.36655 9.5237C1.13894 8.63265 2.87966 8.95821 4.25464 10.2507C5.62963 11.5432 6.11776 13.3131 5.34537 14.2042Z" fill="currentColor"/>
<path d="M11.1469 7.88952C12.3657 7.78475 13.2226 6.04678 13.061 4.00757C12.8994 1.96851 11.7804 0.400193 10.5616 0.504958C9.34294 0.609723 8.48605 2.34769 8.64766 4.3869C8.80926 6.42611 9.92811 7.99428 11.1469 7.88952Z" fill="currentColor"/>
<path d="M15.2073 10.7838C16.3387 11.0145 17.5443 9.66709 17.9004 7.77431C18.2564 5.88153 17.628 4.16005 16.4967 3.92921C15.3655 3.69837 14.1599 5.04588 13.8038 6.93866C13.4477 8.83145 14.076 10.5531 15.2073 10.7838Z" fill="currentColor"/>
</svg>
