<svg width="100%" height="100%" viewBox="0 0 42 42" fill="currentcolor" xmlns="http://www.w3.org/2000/svg">
<rect x="5" y="5" width="32" height="32" fill="white"/>
<path d="M7 -7.56159e-09C3.134 -3.38543e-09 3.38543e-09 3.134 7.56159e-09 7L3.7808e-08 35C4.19841e-08 38.866 3.134 42 7 42L35 42C38.866 42 42 38.866 42 35L42 7C42 3.134 38.866 -4.19841e-08 35 -3.7808e-08L7 -7.56159e-09ZM9.08594 9L17.0234 9L22.6602 17.0098L29.5 9L32 9L23.7891 18.6133L33.9141 33L25.9785 33L19.4375 23.707L11.5 33L9 33L18.3086 22.1035L9.08594 9ZM12.9141 11L27.0215 31L30.0859 31L15.9785 11L12.9141 11Z" fill="currentcolor"/>
</svg>
