<svg width="100%" height="100%" viewBox="0 0 42 42" fill="currentcolor" xmlns="http://www.w3.org/2000/svg">
<path d="M7 3.78072e-09C3.134 7.95688e-09 -2.55607e-09 3.134 1.62009e-09 7L3.18671e-08 35C3.60433e-08 38.866 3.134 42 7 42L35 42C38.866 42 42 38.866 42 35L42 7C42 3.134 38.866 -3.06418e-08 35 -2.64657e-08L7 3.78072e-09Z" fill="currentcolor"/>
<path fill-rule="evenodd" clip-rule="evenodd" d="M7.79176 20.2986C14.7883 17.2504 19.4537 15.2408 21.788 14.2699C28.4531 11.4976 29.838 11.0161 30.7407 11.0002C30.9392 10.9967 31.3832 11.0459 31.6707 11.2792C31.9135 11.4762 31.9803 11.7424 32.0123 11.9292C32.0443 12.1159 32.0841 12.5415 32.0524 12.8739C31.6912 16.6689 30.1284 25.8783 29.3333 30.1287C28.9969 31.9272 28.3345 32.5303 27.6932 32.5893C26.2994 32.7175 25.2411 31.6682 23.8912 30.7833C21.7789 29.3987 20.5856 28.5367 18.5352 27.1856C16.1657 25.6241 17.7017 24.7659 19.0521 23.3633C19.4055 22.9962 25.5463 17.4107 25.6652 16.904C25.68 16.8406 25.6938 16.6044 25.5535 16.4797C25.4132 16.355 25.2061 16.3976 25.0566 16.4315C24.8447 16.4796 21.4703 18.71 14.9333 23.1227C13.9754 23.7804 13.1079 24.1009 12.3306 24.0841C11.4736 24.0656 9.82525 23.5995 8.59985 23.2012C7.09685 22.7127 5.9023 22.4543 6.00631 21.6246C6.06049 21.1924 6.65564 20.7504 7.79176 20.2986Z" fill="white"/>
</svg>
