<svg width="220" height="218" viewBox="0 0 220 218" fill="none" xmlns="http://www.w3.org/2000/svg">
<path d="M199.515 104.33C197.511 103.537 195.514 102.391 193.705 100.877C191.888 99.3701 190.266 97.503 188.969 95.3763C186.359 91.1158 185.335 86.365 185.321 82.1693C185.306 77.9447 186.236 74.2536 187.375 71.3628C187.476 71.1033 187.584 70.8582 187.693 70.6059C187.296 70.9663 186.878 71.3268 186.424 71.6944C183.792 73.7995 180.195 75.9334 175.689 77.0147C173.447 77.5482 170.996 77.8149 168.452 77.6347C165.914 77.4617 163.283 76.8489 160.795 75.7027C158.308 74.5636 156.109 72.9488 154.35 71.0672C152.584 69.1857 151.258 67.059 150.335 64.9179C148.482 60.6141 148.187 56.404 148.403 53.0517C148.526 51.3071 148.771 49.7716 149.073 48.4451C147.985 50.2474 146.5 52.3669 144.51 54.6305C141.67 57.853 137.777 61.3782 132.644 64.1249C130.085 65.4946 127.223 66.6553 124.123 67.4122C121.023 68.1764 117.678 68.5369 114.268 68.3206C110.858 68.1115 107.564 67.3329 104.579 66.1146C101.594 64.9035 98.927 63.2598 96.649 61.4287C92.0712 57.7376 89.0505 53.3689 87.0464 49.5625C85.0423 45.7345 83.9897 42.4183 83.4346 40.1042C83.2688 39.3905 83.1535 38.7849 83.067 38.2659C82.9804 38.684 82.8579 39.167 82.6993 39.7077C82.1009 41.7479 80.9763 44.6603 78.9217 47.9405C76.8816 51.2062 73.8537 54.8468 69.6292 57.8962C65.4335 60.9529 60.0339 63.3319 54.0864 64.233C48.1389 65.1558 42.3428 64.543 37.4046 63.13C32.5096 61.7315 28.422 59.5904 25.2861 57.4349C26.5549 59.5471 27.7588 62.0487 28.6023 64.9539C29.179 66.9509 29.5827 69.1424 29.6692 71.4493C29.7558 73.7563 29.5107 76.2001 28.7898 78.608C28.0761 81.0158 26.9081 83.2434 25.4231 85.1105C23.938 86.9777 22.1574 88.47 20.3191 89.5802C16.6064 91.8078 12.8144 92.572 9.7433 92.8099C9.64958 92.8099 9.56307 92.8171 9.47656 92.8243C12.2232 93.9129 15.4168 95.6286 18.3509 98.4185C19.8216 99.8243 21.2202 101.504 22.352 103.472C23.4838 105.433 24.3561 107.689 24.7238 110.126C25.1059 112.563 24.9472 115.035 24.3056 117.285C23.6784 119.541 22.5899 121.545 21.2923 123.203C19.9946 124.862 18.5023 126.181 17.01 127.212C15.5177 128.25 14.0183 129 12.6269 129.576C11.5528 130.009 10.5435 130.34 9.61349 130.586C10.5074 130.722 11.4734 130.932 12.5043 131.22C15.3231 132.013 18.6321 133.527 21.6527 136.151C24.6733 138.753 27.319 142.531 28.6383 146.993C29.9864 151.449 29.8783 156.012 28.9195 159.847C28.2706 162.486 27.2469 164.785 26.1007 166.725C26.2449 166.638 26.3747 166.552 26.5189 166.465C29.9144 164.439 34.2903 162.493 39.488 161.397C42.0833 160.856 44.8732 160.532 47.7929 160.575C50.7126 160.611 53.7692 161.022 56.7826 161.981C59.796 162.94 62.6075 164.439 64.9361 166.4C67.2718 168.354 69.0886 170.74 70.3358 173.206C71.5829 175.678 72.2966 178.209 72.6643 180.566C73.0319 182.938 73.0751 185.144 72.9598 187.134C72.8661 188.734 72.6715 190.183 72.4408 191.488C72.6715 191.12 72.9094 190.738 73.1761 190.356C74.9063 187.876 77.4655 185.057 81.2503 183.089C83.1318 182.123 85.3162 181.402 87.6808 181.179C90.0382 180.948 92.547 181.237 94.9115 182.094C97.2833 182.945 99.3596 184.293 101.061 185.865C102.762 187.436 104.096 189.224 105.127 191.027C106.432 193.326 107.246 195.626 107.758 197.767C107.773 197.717 107.78 197.673 107.787 197.63C108.811 193.622 110.793 188.821 114.607 184.567C116.503 182.455 118.846 180.516 121.564 178.995C124.274 177.466 127.338 176.363 130.56 175.779C137.034 174.597 143.321 175.556 148.54 177.351C153.795 179.153 158.056 181.785 161.3 184.315C164.047 186.463 166.072 188.532 167.493 190.205C166.793 188.46 166.087 186.146 165.748 183.306C165.301 179.636 165.597 175.001 167.485 170.336C169.331 165.672 172.77 161.152 177.239 157.634C181.709 154.094 186.654 151.802 191.275 150.374C195.478 149.084 199.436 148.507 202.839 148.334C201.7 147.794 200.539 147.13 199.393 146.273C197.699 145.004 196.055 143.317 194.808 141.197C193.554 139.092 192.725 136.598 192.436 133.981C192.148 131.364 192.371 128.646 193.02 126.008C194.332 120.716 197.064 116.29 200.063 112.844C202.724 109.795 205.636 107.509 208.332 105.866C205.672 105.923 202.623 105.548 199.508 104.316L199.515 104.33Z" fill="#3EB5F1"/>
<path d="M217.913 102.102C217.682 102.124 217.444 102.153 217.178 102.189C215.548 102.384 213.227 102.715 210.415 102.665C207.618 102.614 204.309 102.146 201.08 100.646C197.857 99.1683 194.793 96.6018 192.659 93.0982C190.518 89.609 189.523 85.6585 189.307 82.0323C189.084 78.3917 189.596 75.0467 190.288 72.3C190.98 69.5461 191.838 67.3618 192.407 65.819C192.984 64.2835 193.272 63.368 193.013 63.2021C192.775 63.0147 191.953 63.6419 190.583 64.7809C189.206 65.9128 187.26 67.5564 184.643 69.1785C182.033 70.7933 178.717 72.3721 174.853 73.0858C171.018 73.8067 166.599 73.5904 162.605 71.7449C160.615 70.8293 158.856 69.575 157.414 68.1043C155.965 66.6337 154.819 64.9611 153.961 63.2237C152.238 59.7418 151.64 56.1156 151.467 53.0517C151.301 49.9734 151.517 47.4214 151.632 45.6408C151.755 43.8601 151.777 42.8292 151.481 42.7427C151.214 42.5913 150.349 43.579 148.864 45.3596C147.372 47.1331 145.252 49.6995 142.297 52.4822C139.348 55.2505 135.549 58.2567 130.82 60.542C126.127 62.8273 120.446 64.3483 114.527 63.9735C108.609 63.6274 103.231 61.3494 99.0853 58.2495C94.9113 55.1496 91.8835 51.372 89.6775 47.9981C87.4715 44.6099 86.0297 41.5965 85.0061 39.5275C83.9896 37.444 83.384 36.2761 83.0884 36.3627C82.8 36.2617 82.1729 37.2566 81.1348 39.03C80.0895 40.7963 78.6043 43.3483 76.3983 46.167C74.1924 48.9786 71.2223 52.0497 67.3438 54.5945C63.4797 57.1465 58.7 59.129 53.4158 59.9292C48.1387 60.7438 42.9482 60.3257 38.4065 59.2443C33.8503 58.1629 29.9213 56.44 26.7638 54.7242C23.599 53.0013 21.1912 51.2927 19.5042 50.1176C19.0429 49.7932 18.6391 49.5121 18.2786 49.2742C17.3775 48.5965 16.7864 48.337 16.6134 48.4956C16.3971 48.7118 16.8369 49.5481 17.7092 50.9395C18.5743 52.3308 19.8719 54.2845 21.1984 56.8005C22.5248 59.3092 23.9018 62.3947 24.7164 65.9488C25.531 69.4741 25.7617 73.5184 24.6155 77.3536C24.0459 79.264 23.1664 81.0014 22.049 82.4865C20.9316 83.9715 19.5835 85.2115 18.1417 86.1991C15.2437 88.1816 12.0428 89.1765 9.31057 89.7532C6.55669 90.3227 4.2209 90.5102 2.59886 90.6904C0.969603 90.8634 0.0324388 91.022 0.00360242 91.3248C-0.0612794 91.6276 0.753376 92.0601 2.19519 92.709C3.6298 93.3578 5.71318 94.23 8.09218 95.5637C10.4568 96.8902 13.1458 98.6997 15.5104 101.23C17.8605 103.739 19.8646 107.041 20.4341 110.782C21.0325 114.516 19.9872 118.114 18.084 120.817C16.188 123.557 13.6 125.467 11.2859 126.808C8.95731 128.156 6.85946 128.992 5.41764 129.62C3.96861 130.24 3.14673 130.65 3.2044 130.96C3.18998 131.263 4.03349 131.566 5.50414 132.006C6.96759 132.453 9.07267 133.037 11.4733 134.104C13.8667 135.163 16.5557 136.742 18.9563 139.092C21.3498 141.428 23.3971 144.564 24.4929 148.241C25.6031 151.91 25.6391 155.68 25.0191 158.997C24.4063 162.327 23.1808 165.211 21.9048 167.511C20.6288 169.817 19.3239 171.576 18.4372 172.824C17.5433 174.071 17.0675 174.828 17.2621 175.058C17.4496 175.282 18.3075 174.957 19.6267 174.02C19.9007 173.826 20.1963 173.595 20.4991 173.35C22.2653 172.225 24.7452 170.675 27.9677 169.176C31.3127 167.619 35.4796 166.112 40.2304 165.333C44.9523 164.562 50.3519 164.497 55.4703 166.119C58.0151 166.934 60.3221 168.145 62.2469 169.688C64.1717 171.223 65.6929 173.09 66.8103 175.087C69.0595 179.103 69.7227 183.471 69.8957 187.119C70.0543 190.796 69.7516 193.831 69.593 195.943C69.42 198.055 69.3695 199.267 69.6651 199.346C69.9462 199.468 70.5446 198.755 71.4818 197.464C72.4262 196.174 73.731 194.299 75.5837 192.274C77.4292 190.27 79.8731 188.092 82.9875 186.708C84.5374 186.023 86.246 185.548 88.0338 185.432C89.8145 185.31 91.6672 185.548 93.4479 186.189C97.0308 187.472 99.8351 190.197 101.709 193.11C103.613 196.044 104.672 199.151 105.357 201.819C106.035 204.5 106.338 206.771 106.604 208.35C106.864 209.936 107.073 210.837 107.376 210.852C107.664 210.866 108.032 209.994 108.291 208.35C108.349 208.004 108.392 207.607 108.436 207.197C108.875 205.041 109.474 202.02 110.728 198.546C112.033 194.948 114.102 190.832 117.533 187.314C119.242 185.562 121.282 183.983 123.618 182.736C125.946 181.482 128.563 180.566 131.346 180.062C136.926 179.038 142.513 179.737 147.321 181.172C152.152 182.606 156.261 184.762 159.534 186.838C162.814 188.922 165.294 190.918 167.031 192.303C168.761 193.687 169.771 194.444 170.001 194.242C170.282 194.119 170.088 193.023 169.72 191.113C169.367 189.21 168.833 186.47 168.812 183.125C168.79 179.795 169.352 175.844 171.162 171.922C172.943 168.001 175.963 164.18 179.943 161.044C183.915 157.894 188.341 155.695 192.537 154.181C196.747 152.667 200.741 151.831 204.129 151.362C207.525 150.886 210.322 150.764 212.268 150.656C212.506 150.641 212.73 150.634 212.939 150.62C214.496 150.612 215.354 150.403 215.375 150.144C215.375 150.108 215.375 150.065 215.339 150.028C215.325 150.007 215.296 149.985 215.274 149.964C215.109 149.805 214.741 149.625 214.157 149.43C213.753 149.286 213.27 149.127 212.686 148.947C210.963 148.392 208.469 147.657 205.73 146.244C203.019 144.838 200.056 142.632 198.297 139.258C197.417 137.586 196.848 135.654 196.668 133.577C196.487 131.501 196.689 129.281 197.237 127.06C198.34 122.605 200.611 118.633 203.134 115.425C205.672 112.202 208.491 109.715 211.035 107.862C213.508 106.06 215.721 104.842 217.3 103.977C217.415 103.926 217.531 103.876 217.632 103.833C219.189 103.104 219.946 102.492 219.845 102.218C219.78 101.994 219.095 101.937 217.891 102.124L217.913 102.102ZM200.078 112.858C197.086 116.297 194.354 120.731 193.034 126.022C192.385 128.661 192.162 131.379 192.45 133.995C192.739 136.612 193.568 139.114 194.822 141.212C196.069 143.324 197.713 145.018 199.407 146.287C200.553 147.138 201.714 147.808 202.853 148.349C199.45 148.522 195.493 149.098 191.29 150.389C186.669 151.809 181.723 154.109 177.254 157.648C172.784 161.166 169.345 165.687 167.5 170.351C165.611 175.015 165.323 179.651 165.762 183.32C166.101 186.168 166.8 188.475 167.507 190.219C166.087 188.547 164.054 186.47 161.314 184.329C158.07 181.799 153.802 179.168 148.554 177.365C143.335 175.57 137.048 174.611 130.575 175.794C127.352 176.378 124.288 177.481 121.578 179.009C118.86 180.53 116.524 182.469 114.621 184.582C110.807 188.835 108.825 193.629 107.801 197.645C107.787 197.695 107.78 197.738 107.772 197.781C107.26 195.64 106.446 193.341 105.141 191.041C104.117 189.239 102.784 187.451 101.075 185.879C99.3737 184.308 97.2903 182.96 94.9258 182.109C92.5612 181.251 90.0452 180.97 87.695 181.193C85.3304 181.417 83.1461 182.138 81.2645 183.104C77.4797 185.072 74.9205 187.891 73.1903 190.371C72.9236 190.753 72.6857 191.127 72.455 191.502C72.6857 190.198 72.8731 188.749 72.974 187.148C73.0822 185.166 73.0462 182.952 72.6785 180.581C72.3181 178.216 71.5971 175.686 70.3499 173.22C69.1027 170.755 67.286 168.361 64.9503 166.415C62.6218 164.461 59.8103 162.954 56.7969 161.996C53.7835 161.037 50.7268 160.626 47.8071 160.59C44.8875 160.554 42.0903 160.871 39.5023 161.412C34.3045 162.5 29.9286 164.454 26.5331 166.48C26.3889 166.566 26.2519 166.653 26.1149 166.739C27.254 164.8 28.2777 162.5 28.9337 159.862C29.8925 156.026 30.0006 151.47 28.6525 147.008C27.3333 142.545 24.6876 138.768 21.667 136.165C18.6391 133.534 15.3301 132.027 12.5186 131.234C11.4877 130.939 10.5144 130.737 9.62772 130.6C10.5577 130.348 11.567 130.023 12.6412 129.591C14.0325 129.021 15.532 128.264 17.0243 127.226C18.5165 126.195 20.0089 124.876 21.3065 123.218C22.6041 121.567 23.6927 119.556 24.3199 117.299C24.9543 115.05 25.1129 112.57 24.738 110.141C24.3704 107.704 23.4981 105.447 22.3662 103.487C21.2344 101.518 19.8358 99.8387 18.3651 98.433C15.431 95.6431 12.2375 93.9273 9.49079 92.8387C9.58451 92.8387 9.67102 92.8315 9.75753 92.8243C12.8286 92.5864 16.6205 91.8222 20.3332 89.5946C22.1715 88.4844 23.9522 86.9921 25.4373 85.125C26.9224 83.265 28.0974 81.0302 28.8039 78.6224C29.5248 76.2145 29.7628 73.7706 29.6835 71.4637C29.597 69.1496 29.1932 66.9653 28.6165 64.9683C27.7658 62.0631 26.5691 59.5615 25.3003 57.4493C28.4435 59.6048 32.5238 61.7459 37.4188 63.1445C42.357 64.5574 48.1532 65.1702 54.1007 64.2474C60.0482 63.3535 65.4477 60.9673 69.6434 57.9106C73.8607 54.8612 76.8886 51.2206 78.936 47.9549C80.9833 44.6748 82.108 41.7623 82.7135 39.7221C82.8721 39.1814 82.9875 38.6984 83.0812 38.2803C83.1605 38.7994 83.2758 39.4049 83.4489 40.1186C84.0112 42.4255 85.0565 45.7489 87.0606 49.5769C89.0648 53.3761 92.0853 57.7449 96.6631 61.4431C98.9412 63.2814 101.609 64.9179 104.593 66.129C107.57 67.3474 110.872 68.1259 114.282 68.335C117.699 68.5513 121.037 68.1908 124.137 67.4267C127.244 66.6625 130.099 65.5018 132.658 64.1393C137.791 61.3927 141.684 57.8674 144.524 54.6449C146.514 52.3813 147.992 50.2546 149.088 48.4595C148.785 49.786 148.54 51.3216 148.417 53.0662C148.201 56.4256 148.497 60.6285 150.349 64.9323C151.272 67.0734 152.598 69.2001 154.365 71.0817C156.124 72.9632 158.33 74.5781 160.81 75.7171C163.297 76.8634 165.928 77.4761 168.466 77.6492C171.011 77.8294 173.462 77.5626 175.704 77.0292C180.202 75.9478 183.807 73.8139 186.438 71.7089C186.892 71.3484 187.31 70.9807 187.707 70.6203C187.599 70.8654 187.498 71.1177 187.39 71.3772C186.243 74.2609 185.313 77.9591 185.335 82.1837C185.349 86.3793 186.373 91.1301 188.983 95.3907C190.28 97.5102 191.902 99.3846 193.719 100.891C195.529 102.405 197.533 103.551 199.53 104.344C202.644 105.584 205.693 105.952 208.354 105.894C205.657 107.538 202.752 109.823 200.085 112.873L200.078 112.858Z" fill="#201600"/>
<path d="M23.7142 14.6272C22.6833 15.449 21.6596 16.3141 20.6792 17.1936L19.9438 17.8568L55.773 55.5892L24.4927 14.0071L23.7142 14.6272ZM21.3352 17.9217C22.3012 17.0494 23.3033 16.2059 24.3269 15.3913L53.2138 52.5614L21.3424 17.9217H21.3352Z" fill="#201600"/>
<path d="M21.3353 17.9219L53.2068 52.5616L24.3199 15.3915C23.3034 16.199 22.2941 17.0496 21.3281 17.9219H21.3353Z" fill="#3EB5F1"/>
<path d="M30.3612 0L29.4745 0.454176C28.1769 1.11741 26.8793 1.83112 25.6177 2.58087L24.7598 3.08551L55.7733 52.6841L30.3612 0.00721613V0ZM29.9215 1.32649L53.2141 48.0702L26.1151 3.42432C27.355 2.68899 28.6383 1.98252 29.9215 1.32649Z" fill="#201600"/>
<path d="M29.9217 1.3266C28.6384 1.98263 27.3552 2.6891 26.1152 3.42443L53.2143 48.0703L29.9217 1.3266Z" fill="#FFF343"/>
<path d="M196.098 21.7931C194.995 21.0722 193.849 20.3801 192.703 19.7241L191.838 19.2338L167.363 65.1558L196.927 22.3409L196.098 21.8003V21.7931ZM192.22 20.5748C193.352 21.2164 194.476 21.9012 195.565 22.6149L169.425 61.7675L192.22 20.5748Z" fill="#201600"/>
<path d="M192.22 20.5749L169.425 61.7676L195.565 22.615C194.476 21.9013 193.352 21.2165 192.22 20.5749Z" fill="#FFF343"/>
<path d="M211.115 39.0807C210.322 38.0282 209.479 36.9901 208.621 35.988L207.972 35.231L169.418 70.1807L211.714 39.8665L211.115 39.0735V39.0807ZM207.878 36.6296C208.722 37.6172 209.551 38.641 210.337 39.6791L172.511 67.7008L207.878 36.6296Z" fill="#201600"/>
<path d="M207.878 36.6295L172.51 67.7007L210.336 39.6789C209.551 38.6408 208.721 37.6171 207.878 36.6295Z" fill="#FFF343"/>
<path d="M212.073 23.4729L211.367 22.7736C210.329 21.7572 209.24 20.7479 208.13 19.7818L207.38 19.1331L170.124 64.2331L212.073 23.4729ZM210.675 23.4801L173.692 60.3474L207.488 20.5316C208.577 21.476 209.651 22.4708 210.675 23.4801Z" fill="#201600"/>
<path d="M210.675 23.48C209.645 22.4635 208.57 21.4759 207.489 20.5315L173.693 60.3473L210.675 23.48Z" fill="#3EB5F1"/>
<path d="M11.4516 208.134C12.3167 209.129 13.225 210.109 14.155 211.046L14.8542 211.753L50.8853 174.208L10.8027 207.384L11.4588 208.134H11.4516ZM14.847 210.354C13.9387 209.431 13.0376 208.465 12.1869 207.485L47.9729 176.904L14.847 210.354Z" fill="#201600"/>
<path d="M14.8476 210.354L47.9735 176.904L12.1875 207.485C13.0454 208.466 13.9393 209.432 14.8476 210.354Z" fill="#3EB5F1"/>
<path d="M206.191 217.015C207.301 216.309 208.411 215.552 209.478 214.78L210.278 214.197L178.551 172.946L205.347 217.549L206.184 217.015H206.191ZM208.902 213.987C207.849 214.752 206.76 215.494 205.665 216.193L180.793 176.226L208.909 213.987H208.902Z" fill="#201600"/>
<path d="M208.902 213.987L180.787 176.226L205.658 216.193C206.754 215.494 207.842 214.752 208.895 213.987H208.902Z" fill="#3EB5F1"/>
<path d="M5.56943 199.519C6.24709 200.651 6.96798 201.775 7.71773 202.864L8.28006 203.686L50.3812 173.105L5.05762 198.668L5.56943 199.519ZM8.52515 202.309C7.78982 201.235 7.08338 200.125 6.41293 199.014L47.0434 175.246L8.52515 202.309Z" fill="#201600"/>
<path d="M8.52481 202.309L47.043 175.246L6.4126 199.014C7.08304 200.132 7.78949 201.235 8.52481 202.309Z" fill="#FFF343"/>
<path d="M214.078 213.944L214.842 213.31C215.967 212.38 217.077 211.407 218.151 210.405L218.872 209.727L177.881 168.001L214.071 213.951L214.078 213.944ZM214.215 212.553L181.378 171.944L217.474 209.684C216.421 210.671 215.325 211.63 214.208 212.553H214.215Z" fill="#201600"/>
<path d="M214.215 212.553C215.325 211.637 216.428 210.671 217.48 209.684L181.384 171.944L214.222 212.553H214.215Z" fill="#FFF343"/>
<path d="M21.5085 159.984C19.3746 151.867 17.5724 141.017 16.1594 127.745C14.8041 115.389 14.1191 104.474 14.1191 95.3114V94.2156L35.5158 82.9046L34.7588 86.6605C33.9009 90.8778 33.4684 96.4937 33.4684 103.342C33.4684 107.228 33.591 111.063 33.8289 114.834C35.2058 109.074 36.9576 101.208 39.0627 91.3104L39.2933 90.2362L55.2687 85.7522L54.9155 88.47C54.5118 91.5555 54.3098 95.5782 54.3098 100.423C54.3098 101.778 54.3243 103.076 54.3531 104.308C54.8217 102.621 55.3479 100.834 55.9247 98.9592C58.0225 92.1394 60.2213 85.918 62.4706 80.4751L62.8887 79.4658L85.7487 77.2166L83.5788 80.4175C80.1185 85.5215 76.3697 95.9098 72.4407 111.294C68.6487 125.979 66.0247 139.712 64.6261 152.119L64.4963 153.258L46.4663 159.415L46.2645 157.108C46.142 155.731 45.8247 148.882 45.2913 136.18C45.1471 132.755 44.9813 129.656 44.7866 126.894C44.1595 129.31 43.7557 130.968 43.5899 131.862C42.3211 137.809 41.6796 144.067 41.6796 150.504V151.586L22.0924 162.212L21.5085 159.977V159.984Z" fill="#201600"/>
<path d="M82.0794 79.4155C78.4892 84.7142 74.6901 95.1962 70.689 110.854C66.861 125.691 64.2441 139.381 62.8311 151.925L48.0812 156.956C47.9659 155.601 47.6415 148.652 47.108 136.108C46.7548 127.688 46.2574 121.271 45.6086 116.852C43.4314 124.804 42.1626 129.692 41.8094 131.516C40.5117 137.578 39.863 143.908 39.863 150.504L23.2604 159.516C21.1409 151.449 19.3747 140.794 17.9617 127.543C16.6064 115.18 15.9287 104.431 15.9287 95.3043L32.9782 86.2929C32.0915 90.6544 31.6518 96.3352 31.6518 103.342C31.6518 110.883 32.0915 118.15 32.9782 125.157C34.3912 120.803 37.0081 109.643 40.8362 91.6853L53.1133 88.2394C52.7024 91.4186 52.4933 95.4845 52.4933 100.43C52.4933 107.026 52.8465 112.174 53.553 115.886C54.2018 111.763 55.5715 106.305 57.6622 99.5C59.7528 92.7018 61.9155 86.5885 64.1503 81.1745L82.0794 79.4083V79.4155Z" fill="#FFF343"/>
<path d="M89.4035 154.433C83.6362 154.433 78.8061 151.78 75.043 146.539C71.0635 141.01 69.0522 133.909 69.0522 125.431C69.0522 121.971 69.4199 118.402 70.148 114.826C74.3726 94.1219 85.0348 82.9983 101.818 81.7583C102.221 81.7295 102.611 81.7151 103 81.7151C108.313 81.7151 112.797 84.2455 116.329 89.227C119.948 94.3454 121.787 101.144 121.787 109.441C121.787 111.568 121.635 113.817 121.333 116.124C119.624 129.893 116.517 139.359 111.838 145.04C107.484 150.411 100.52 153.546 91.1625 154.347C90.5785 154.397 89.9874 154.426 89.4107 154.426L89.4035 154.433ZM99.5755 96.1909C99.5755 96.1909 99.5323 96.1909 99.4962 96.1981C97.283 96.6523 95.142 99.2909 93.3036 103.847C91.6672 108.021 90.4849 113.01 89.8 118.662C89.3963 121.762 89.1944 124.624 89.1944 127.19C89.1944 131.184 89.6774 137.903 92.9143 138.004C92.9936 138.004 94.4931 137.932 97.1172 132.092C98.9771 127.868 100.239 123.398 100.859 118.813C101.32 115.655 101.551 112.296 101.551 108.814C101.551 97.1858 99.6044 96.191 99.59 96.1837H99.5755V96.1909Z" fill="#201600"/>
<path d="M119.531 115.886C117.88 129.194 114.852 138.53 110.433 143.886C106.367 148.89 99.8929 151.78 91.0041 152.545C85.1143 153.071 80.2914 150.721 76.521 145.48C72.7507 140.239 70.8691 133.556 70.8691 125.431C70.8691 122.072 71.2224 118.662 71.9289 115.187C75.9876 95.2828 86.001 84.7431 101.962 83.568C107.145 83.2147 111.442 85.4568 114.859 90.2797C118.276 95.1097 119.985 101.497 119.985 109.449C119.985 111.51 119.833 113.659 119.545 115.894L119.531 115.886ZM102.661 119.066C103.13 115.829 103.368 112.412 103.368 108.821C103.368 98.635 101.955 93.8337 99.1288 94.4249C96.2451 95.016 93.7435 97.9285 91.6241 103.17C89.9155 107.524 88.7116 112.621 88.0051 118.446C87.5942 121.625 87.3851 124.537 87.3851 127.19C87.3851 135.495 89.2091 139.705 92.8641 139.821C94.688 139.878 96.6633 137.557 98.7827 132.842C100.729 128.43 102.02 123.831 102.668 119.066H102.661Z" fill="#FFF343"/>
<path d="M126.61 159.984C124.476 151.867 122.673 141.017 121.26 127.745C119.905 115.389 119.22 104.474 119.22 95.3114V94.2156L140.617 82.9046L139.86 86.6605C139.002 90.8778 138.569 96.4937 138.569 103.342C138.569 107.228 138.692 111.063 138.93 114.834C140.307 109.074 142.051 101.208 144.164 91.3104L144.394 90.2362L160.37 85.7522L160.016 88.47C159.613 91.5555 159.411 95.5782 159.411 100.423C159.411 101.778 159.425 103.076 159.454 104.308C159.923 102.621 160.449 100.834 161.026 98.9592C163.124 92.1394 165.322 85.918 167.572 80.4751L167.99 79.4658L190.85 77.2166L188.68 80.4175C185.227 85.5215 181.478 95.9026 177.542 111.294C173.757 125.979 171.126 139.712 169.727 152.119L169.597 153.258L151.567 159.415L151.366 157.108C151.243 155.731 150.926 148.882 150.385 136.18C150.241 132.755 150.075 129.656 149.881 126.894C149.253 129.31 148.857 130.968 148.684 131.862C147.415 137.809 146.773 144.067 146.773 150.504V151.586L127.186 162.212L126.602 159.977L126.61 159.984Z" fill="#201600"/>
<path d="M187.181 79.4155C183.591 84.7142 179.792 95.1962 175.791 110.854C171.962 125.691 169.346 139.381 167.933 151.925L153.183 156.956C153.067 155.601 152.743 148.652 152.21 136.108C151.856 127.688 151.352 121.271 150.71 116.852C148.533 124.804 147.264 129.692 146.911 131.516C145.613 137.578 144.964 143.908 144.964 150.504L128.362 159.516C126.242 151.449 124.476 140.794 123.063 127.543C121.708 115.18 121.03 104.431 121.03 95.3043L138.08 86.2929C137.193 90.6544 136.753 96.3352 136.753 103.342C136.753 110.883 137.193 118.15 138.08 125.157C139.493 120.803 142.11 109.643 145.938 91.6853L158.215 88.2394C157.804 91.4186 157.595 95.4845 157.595 100.43C157.595 107.026 157.948 112.174 158.654 115.886C159.303 111.763 160.673 106.305 162.764 99.5C164.854 92.7018 167.017 86.5885 169.252 81.1745L187.181 79.4083V79.4155Z" fill="#FFF343"/>
<path d="M181.724 155.428C179.273 155.428 177.261 154.606 175.74 152.984C174.154 151.29 173.354 149.178 173.354 146.712C173.354 145.681 173.491 144.629 173.772 143.598C174.796 140.116 176.879 137.42 179.972 135.538C182.416 134.125 184.831 133.411 187.181 133.411C187.289 133.411 187.397 133.411 187.505 133.411C190.187 133.484 192.501 134.269 194.369 135.747C196.351 137.319 197.396 139.431 197.396 141.853C197.396 143.165 197.108 144.477 196.531 145.768C193.821 151.715 189.055 154.952 182.365 155.406C182.135 155.421 181.926 155.428 181.731 155.428H181.724ZM178.581 128.855C179.121 123.845 182.344 109.153 188.421 83.9355L188.601 83.1857L189.272 82.7965C194.779 79.5884 203.265 76.8706 214.489 74.7223L218.324 73.9869L216.414 77.3897C213.732 82.1765 209.767 90.0127 204.634 100.697C198.074 114.271 194.354 123.16 193.561 127.118L193.323 128.3L178.314 131.328L178.581 128.863V128.855Z" fill="#201600"/>
<path d="M194.866 145.04C192.451 150.339 188.24 153.193 182.235 153.604C180.058 153.72 178.335 153.107 177.066 151.751C175.797 150.396 175.163 148.716 175.163 146.72C175.163 145.84 175.286 144.953 175.516 144.067C176.396 141.068 178.198 138.739 180.902 137.088C183.136 135.791 185.314 135.178 187.44 135.235C189.74 135.293 191.665 135.942 193.222 137.182C194.779 138.415 195.565 139.979 195.565 141.861C195.565 142.92 195.327 143.98 194.858 145.04H194.866ZM214.828 76.4958C212.117 81.3259 208.174 89.1261 202.99 99.9037C196.336 113.68 192.602 122.634 191.773 126.758L180.382 129.057C180.916 124.17 184.182 109.276 190.187 84.3681C195.543 81.2466 203.762 78.6297 214.828 76.5102V76.4958Z" fill="#FFF343"/>
</svg>
