<svg xmlns="http://www.w3.org/2000/svg" xmlns:xlink="http://www.w3.org/1999/xlink"><defs><style>
    .sprite-symbol-usage {display: none;}
    .sprite-symbol-usage:target {display: inline;}
  </style><symbol viewBox="0 0 93 93" fill="none" id="arr-1"><g clip-path="url(#arr-1_a)" stroke="#000" stroke-linejoin="round"><path fill-rule="evenodd" clip-rule="evenodd" d="M30.697 12.765 5.87 27.312l27.874 22.92-8.235 4.825 58.991 35.578-33.115-36.873 10.035-5.88-30.724-35.117Z" fill="#000" stroke-width="4" /><path fill-rule="evenodd" clip-rule="evenodd" d="M35.295 42.134 13.465 18.83l12.86-10.645 14.043.438 25.996 38.88 6.677.13-17.555 4.003L84.95 91.109l-55.19-42.51 5.534-6.465Z" fill="#FE950D" stroke-width="3" /><path fill-rule="evenodd" clip-rule="evenodd" d="M54.903 4.787 26.325 8.186l20.41 30.525-9.476 1.128 47.692 51.27L61.487 49.01l11.554-1.377L54.903 4.787Z" fill="#FECE0D" stroke-width="3" /><path d="m37.26 39.84-1.965 2.294" stroke-width="3" /></g><defs></defs></symbol><clipPath id="arr-1_a"><path fill="#fff" transform="rotate(4.695 3.49 85.125)" d="M0 0h86.015v85.269H0z" /></clipPath><symbol fill="none" viewBox="0 0 63 62" id="arr-2"><g clip-path="url(#arr-2_a)" stroke="#000" stroke-linejoin="round"><path fill-rule="evenodd" clip-rule="evenodd" d="M40.88 9.63 61.776 24.14 35.47 42.194l6.923 4.81-39.6 13.698L19.62 44.014l-8.449-5.87L40.88 9.63Z" fill="#000" stroke-width="4" /><path fill-rule="evenodd" clip-rule="evenodd" d="M34.686 34.996 55.678 16.18l-10.6-10.242-12.445-.625L6.826 37.464l-5.907-.37 15.226 4.76L2.365 61.09l36.739-20.042-4.418-6.052Z" fill="#FE950D" stroke-width="3" /><path fill-rule="evenodd" clip-rule="evenodd" d="m20.06.91 25.018 5.027L24.82 31.182l8.297 1.668L2.365 61.09l8.67-21.964L.92 37.094 20.061.91Z" fill="#FECE0D" stroke-width="3" /><path d="m33.118 32.85 1.568 2.146" stroke-width="3" /></g><defs></defs></symbol><clipPath id="arr-2_a"><path fill="#fff" d="M0 0h63v62H0z" /></clipPath><symbol fill="none" viewBox="0 0 85 77" id="arr-3"><g clip-path="url(#arr-3_a)" stroke="#000" stroke-linejoin="round"><path fill-rule="evenodd" clip-rule="evenodd" d="M16.32 50.448 31.525 71.04l17.648-26.804 5.046 6.828 12.927-40.032L50.64 28.305l-6.145-8.328L16.32 50.448Z" fill="#000" stroke-width="4" /><path fill-rule="evenodd" clip-rule="evenodd" d="M41.866 43.623 23.31 65.12 12.681 54.743l-.932-12.46 31.953-26.648-.516-5.91 5.188 15.145 19.148-14.275-19.42 37.316-6.236-4.288Z" fill="#FE950D" stroke-width="3" /><path fill-rule="evenodd" clip-rule="evenodd" d="m6.994 29.788 5.687 24.955L37.766 33.83l1.888 8.273 27.868-31.508-22.036 9.222-2.3-10.091L6.994 29.788Z" fill="#FECE0D" stroke-width="3" /><path d="m39.654 42.103 2.212 1.52" stroke-width="3" /></g><defs></defs></symbol><clipPath id="arr-3_a"><path fill="#fff" transform="rotate(-22.651 66.778 13.374)" d="M0 0h69.457v54.244H0z" /></clipPath><symbol fill="none" viewBox="0 0 104 92" id="arr-4"><g clip-path="url(#arr-4_a)" stroke="#000" stroke-linejoin="round"><path fill-rule="evenodd" clip-rule="evenodd" d="m91.455 68.575-11.21 20.28-29.65-36.904-3.72 6.724L10.714 1.5l36.707 36.317 5.4-15.381 38.633 46.14Z" fill="#000" stroke-width="4" /><path fill-rule="evenodd" clip-rule="evenodd" d="m57.06 50.546 29.851 32.025 8.303-10.565.726-20.83-42.908-32.728-.234-5.37-3.747 21.397L10.326 1.149l41.655 53.977 5.08-4.58Z" fill="#FE950D" stroke-width="3" /><path fill-rule="evenodd" clip-rule="evenodd" d="m98.745 39.394-3.531 32.612-35.621-30.74-.726 7.648L10.326 1.149l41.59 21.261.882-9.332 45.947 26.316Z" fill="#FECE0D" stroke-width="3" /><path d="m58.867 48.914-1.807 1.632" stroke-width="3" /></g><defs></defs></symbol><clipPath id="arr-4_a"><path fill="#fff" transform="rotate(6.669 4.725 81.098)" d="M0 0h94.549v81.374H0z" /></clipPath><symbol viewBox="0 0 18 21" fill="none" id="paw"><path d="M17.502 14.993c.284 1.176-.094 2.427-1.821 3.026-1.888.655-2.266-.28-3.581.175-1.316.457-1.08 1.442-2.968 2.096-1.727.6-2.75-.166-3.2-1.284-.584-1.45.303-2.607.753-3.29.352-.535.743-1.194.775-2.124.053-1.59.526-2.976 2.047-3.504 1.52-.527 2.697.286 3.656 1.526.56.725 1.253 1.008 1.843 1.216.754.266 2.129.639 2.496 2.163ZM6.928 9.353c-1.035.677-2.722-.18-3.767-1.912-1.045-1.733-1.052-3.686-.016-4.364 1.035-.677 2.722.18 3.767 1.912 1.044 1.733 1.052 3.687.016 4.364ZM5.345 14.204c-.772.891-2.513.566-3.888-.727C.082 12.185-.406 10.415.367 9.524c.772-.891 2.513-.566 3.888.727 1.375 1.292 1.863 3.062 1.09 3.953ZM11.147 7.89c1.219-.105 2.076-1.843 1.914-3.882-.162-2.04-1.28-3.608-2.5-3.503C9.344.61 8.487 2.348 8.649 4.387c.161 2.04 1.28 3.607 2.499 3.503ZM15.207 10.784c1.132.23 2.337-1.117 2.693-3.01.356-1.892-.272-3.614-1.403-3.845-1.131-.23-2.337 1.117-2.693 3.01-.356 1.892.272 3.614 1.403 3.845Z" fill="currentColor" /></symbol><symbol viewBox="0 0 42 42" fill="currentcolor" id="telega"><path fill="#fff" d="M5 5h32v32H5z" /><path d="M7 0a7 7 0 0 0-7 7v28a7 7 0 0 0 7 7h28a7 7 0 0 0 7-7V7a7 7 0 0 0-7-7H7Zm2.086 9h7.937l5.637 8.01L29.5 9H32l-8.21 9.613L33.913 33h-7.936l-6.54-9.293L11.5 33H9l9.309-10.896L9.086 9Zm3.828 2 14.107 20h3.065L15.979 11h-3.065Z" /></symbol><symbol viewBox="0 0 42 42" fill="currentcolor" id="x"><path d="M7 0a7 7 0 0 0-7 7v28a7 7 0 0 0 7 7h28a7 7 0 0 0 7-7V7a7 7 0 0 0-7-7H7Z" /><path fill-rule="evenodd" clip-rule="evenodd" d="M7.792 20.299c6.996-3.049 11.662-5.058 13.996-6.03 6.665-2.771 8.05-3.253 8.953-3.269.198-.003.642.046.93.28.242.196.31.462.341.65.032.186.072.611.04.944-.36 3.795-1.924 13.004-2.719 17.255-.336 1.798-.998 2.401-1.64 2.46-1.394.129-2.452-.92-3.802-1.806-2.112-1.384-3.305-2.246-5.356-3.597-2.37-1.562-.833-2.42.517-3.823.354-.367 6.494-5.952 6.613-6.459.015-.063.029-.3-.111-.424-.14-.125-.348-.082-.497-.049-.212.049-3.587 2.279-10.124 6.692-.958.657-1.825.978-2.602.961-.857-.018-2.506-.485-3.731-.883-1.503-.488-2.698-.747-2.594-1.576.054-.433.65-.875 1.786-1.326Z" fill="#fff" /></symbol></defs><use id="arr-1-usage" xlink:href="#arr-1" class="sprite-symbol-usage" /><use id="arr-2-usage" xlink:href="#arr-2" class="sprite-symbol-usage" /><use id="arr-3-usage" xlink:href="#arr-3" class="sprite-symbol-usage" /><use id="arr-4-usage" xlink:href="#arr-4" class="sprite-symbol-usage" /><use id="paw-usage" xlink:href="#paw" class="sprite-symbol-usage" /><use id="telega-usage" xlink:href="#telega" class="sprite-symbol-usage" /><use id="x-usage" xlink:href="#x" class="sprite-symbol-usage" /></svg>