<svg width="330" height="125" viewBox="0 0 330 125" fill="none" xmlns="http://www.w3.org/2000/svg">
<path d="M328.155 33.8303C329.548 36.7869 330.165 40.2574 329.959 43.8765C329.64 49.2649 327.494 54.9267 323.908 59.8232C321.032 63.7617 317.402 66.9697 313.429 69.0803L312.607 69.5262L313.007 70.3705C313.144 70.6788 313.28 70.9761 313.418 71.2844C315.095 75.199 313.499 86.6493 311.089 103.978C306.842 134.502 299.857 184.764 303.36 249.465H246.205C255.177 150.906 246.708 113.692 242.096 93.4526C239.721 83.0191 238.522 77.7794 241.433 71.0899C241.571 70.7926 241.707 70.4842 241.844 70.1888L242.244 69.3445L241.422 68.8986C237.462 66.7642 233.853 63.5341 230.989 59.5717C226.285 53.0657 224.196 45.4971 225.281 38.8075C225.727 35.9886 227.234 30.725 232.233 27.1077C235.268 24.9164 238.957 23.8207 242.918 23.9235L243.9 23.9455L243.922 22.9527C244.024 19.0949 244.766 15.4868 246.137 12.2457C247.598 8.76422 249.699 5.92139 252.358 3.79799C254.687 1.94804 257.301 0.749607 260.155 0.259591C263.008 -0.243272 265.873 -0.0138639 268.694 0.933134C271.686 1.93702 274.448 3.71907 276.89 6.20769L277.586 6.9161L278.294 6.20769C279.298 5.2038 280.372 4.30085 281.491 3.51352C285.647 0.637656 290.464 -0.481857 295.065 0.351354C299.677 1.17355 303.797 3.92462 306.675 8.06865C309.507 12.1558 311.058 17.3606 311.173 23.1362L311.195 24.1291L312.177 24.107C316.138 23.9933 319.825 25.1348 322.851 27.3481C325.134 29.0256 326.914 31.1948 328.159 33.8321L328.155 33.8303Z" fill="url(#paint0_linear_2027_26)"/>
<path d="M277.482 48.7896C268.314 49.0079 266.173 57.5823 257.874 65.3712C245.697 76.7976 247.993 86.7374 255.435 88.8167C262.877 90.8961 269.238 82.5144 277.318 82.6943C277.344 82.6943 277.368 82.6943 277.394 82.6943C277.419 82.6943 277.443 82.6943 277.469 82.6943C285.549 82.5566 291.866 90.9713 299.319 88.9323C306.772 86.8915 309.12 76.9646 297.005 65.4758C288.746 57.6429 286.651 49.0575 277.483 48.7914L277.482 48.7896Z" fill="url(#paint1_linear_2027_26)"/>
<path d="M255.376 41.9366C260.428 48.9216 260.872 57.2225 256.37 60.4801C251.869 63.7377 244.122 60.715 239.071 53.7318C234.019 46.7468 233.575 38.4459 238.077 35.1883C242.578 31.9307 250.325 34.9534 255.376 41.9366Z" fill="url(#paint2_linear_2027_26)"/>
<path d="M299.622 42.0543C294.533 49.0118 294.044 57.3109 298.53 60.5924C303.015 63.872 310.777 60.8915 315.866 53.934C320.955 46.9765 321.443 38.6774 316.958 35.396C312.472 32.1145 304.711 35.0968 299.622 42.0543Z" fill="url(#paint3_linear_2027_26)"/>
<path d="M275.171 24.4503C276.742 33.4046 273.334 41.4834 267.562 42.4946C261.79 43.5077 255.838 37.0696 254.267 28.1153C252.696 19.1611 256.105 11.0822 261.877 10.071C267.648 9.05791 273.6 15.496 275.171 24.4503Z" fill="url(#paint4_linear_2027_26)"/>
<path d="M279.921 24.4631C278.304 33.4082 281.668 41.5054 287.435 42.5478C293.201 43.5902 299.188 37.1833 300.805 28.2382C302.421 19.2931 299.057 11.1959 293.291 10.1535C287.525 9.11108 281.538 15.518 279.921 24.4631Z" fill="url(#paint5_linear_2027_26)"/>
<path d="M13.931 137.963L56.6455 133.712L49.1463 109.604L20.4522 86.1269C13.931 92.8461 18.7941 109.525 19.4913 118.627C20.1885 127.729 13.931 137.963 13.931 137.963Z" fill="url(#paint6_linear_2027_26)"/>
<path d="M198.711 133.88L176.308 133.88L181.022 111.835L204.9 89.4872C202.337 100.078 201.128 106.803 198.711 116.892C196.293 126.98 198.711 133.88 198.711 133.88Z" fill="black"/>
<path d="M198.711 133.88L176.308 133.88L181.022 111.835L204.9 89.4872C202.337 100.078 201.128 106.803 198.711 116.892C196.293 126.98 198.711 133.88 198.711 133.88Z" fill="url(#paint7_linear_2027_26)"/>
<path d="M102.009 130.343L53.0088 134.212C53.0088 134.212 49.9028 119.782 43.5857 110.893C36.5012 100.923 20.4521 86.1268 20.4521 86.1268C41.7324 87.6899 48.082 87.5812 67.6805 96.7133C87.2791 105.845 102.009 130.343 102.009 130.343Z" fill="url(#paint8_linear_2027_26)"/>
<path d="M133.438 129.502L179.63 134.182C179.63 134.182 181.204 121.044 186.145 112.769C191.686 103.488 204.9 89.4872 204.9 89.4872C186.145 92.9733 181.315 94.6547 165.601 103.902C149.887 113.15 133.438 129.502 133.438 129.502Z" fill="url(#paint9_linear_2027_26)"/>
<defs>
<linearGradient id="paint0_linear_2027_26" x1="275.305" y1="-0.000879185" x2="275.305" y2="206.991" gradientUnits="userSpaceOnUse">
<stop stop-color="#11526B"/>
<stop offset="1" stop-color="#071C1C"/>
</linearGradient>
<linearGradient id="paint1_linear_2027_26" x1="277.399" y1="48.7896" x2="277.399" y2="89.2511" gradientUnits="userSpaceOnUse">
<stop stop-color="#FEB1BC"/>
<stop offset="1" stop-color="#986A71"/>
</linearGradient>
<linearGradient id="paint2_linear_2027_26" x1="247.224" y1="33.8773" x2="247.224" y2="61.7911" gradientUnits="userSpaceOnUse">
<stop stop-color="#FEB1BC"/>
<stop offset="1" stop-color="#986A71"/>
</linearGradient>
<linearGradient id="paint3_linear_2027_26" x1="307.744" y1="34.0623" x2="307.744" y2="61.9253" gradientUnits="userSpaceOnUse">
<stop stop-color="#FEB1BC"/>
<stop offset="1" stop-color="#986A71"/>
</linearGradient>
<linearGradient id="paint4_linear_2027_26" x1="264.719" y1="9.96606" x2="264.719" y2="42.5995" gradientUnits="userSpaceOnUse">
<stop stop-color="#FEB1BC"/>
<stop offset="1" stop-color="#986A71"/>
</linearGradient>
<linearGradient id="paint5_linear_2027_26" x1="290.363" y1="10.0424" x2="290.363" y2="42.659" gradientUnits="userSpaceOnUse">
<stop stop-color="#FEB1BC"/>
<stop offset="1" stop-color="#986A71"/>
</linearGradient>
<linearGradient id="paint6_linear_2027_26" x1="51.9769" y1="113.991" x2="17.7944" y2="95.56" gradientUnits="userSpaceOnUse">
<stop/>
<stop offset="1" stop-color="#113442"/>
</linearGradient>
<linearGradient id="paint7_linear_2027_26" x1="179.195" y1="115.938" x2="201.274" y2="109.188" gradientUnits="userSpaceOnUse">
<stop/>
<stop offset="1" stop-color="#113442"/>
</linearGradient>
<linearGradient id="paint8_linear_2027_26" x1="52.2642" y1="81.754" x2="58.4684" y2="126.891" gradientUnits="userSpaceOnUse">
<stop stop-color="#11526B"/>
<stop offset="1" stop-color="#071C1C"/>
</linearGradient>
<linearGradient id="paint9_linear_2027_26" x1="175.845" y1="86.8515" x2="172.146" y2="127.629" gradientUnits="userSpaceOnUse">
<stop stop-color="#2A7E9F"/>
<stop offset="1" stop-color="#071C1C"/>
</linearGradient>
</defs>
</svg>
