<svg width="96" height="71" viewBox="0 0 96 71" fill="none" xmlns="http://www.w3.org/2000/svg">
<g clip-path="url(#clip0_312_92)">
<path d="M86.7304 22.4816C83.0666 34.5749 74.0114 45.8545 64.4668 54.0529C62.7067 48.8605 60.9466 43.668 59.1769 38.4785C42.9197 42.8997 26.8074 48.0712 10.7767 53.2702C9.42055 49.3346 8.07686 45.4056 6.72069 41.47C6.68571 41.3552 51.8428 27.6878 56.259 25.8507C54.7016 20.7742 53.0609 15.7335 51.3504 10.7037C57.2434 11.6886 62.7909 12.9461 68.5325 14.7716C70.1985 15.2989 87.091 21.2636 86.7245 22.4625L86.7304 22.4816Z" fill="white"/>
<path d="M85.2655 22.1335C81.5035 34.3508 72.916 44.7979 63.3639 53.0404L65.9047 53.6252C64.1446 48.4327 62.375 43.2432 60.6149 38.0508C60.3442 37.2656 59.5425 36.8304 58.7428 37.0532C42.4597 41.4927 26.3924 46.6401 10.3425 51.8448L12.2147 52.8424C10.8585 48.9068 9.51479 44.9779 8.15862 41.0423L7.82973 42.5015C7.56407 42.8647 6.89028 42.9864 7.57901 42.7766C7.89468 42.6804 8.20743 42.5746 8.5231 42.4784C9.64893 42.1248 10.7843 41.7684 11.9131 41.4244C15.59 40.283 19.2603 39.154 22.9402 38.0221C31.598 35.3523 40.2586 32.6921 48.8806 29.9391C51.4899 29.1021 54.1667 28.3491 56.7052 27.3142C57.4567 27.0015 57.9564 26.2743 57.7028 25.442C56.1453 20.3656 54.5047 15.3249 52.7941 10.2951L51.0112 12.1975C61.6634 13.9796 71.9318 17.1437 81.8457 21.409C82.7497 21.8025 83.6537 22.1961 84.5244 22.6521C84.846 22.8154 85.1705 22.9883 85.4722 23.1891C85.1397 22.9559 85.5029 23.2216 85.5029 23.2216C85.6518 23.0926 85.4232 23.6117 85.4942 23.1929C85.4085 23.0831 85.3902 23.0573 85.4268 23.1089C85.6245 23.4145 85.5665 23.0872 85.275 22.1306C84.9663 24.0333 87.8773 24.7351 88.1927 22.82C88.4745 21.1033 86.585 20.2887 85.3228 19.6803C83.261 18.6778 81.1223 17.8346 78.9799 17.0135C74.9368 15.4439 70.8553 13.886 66.6863 12.658C61.7701 11.2082 56.7626 10.1102 51.7073 9.26729C50.6395 9.0909 49.5334 10.0239 49.9244 11.1696C51.632 16.1899 53.2756 21.2401 54.8331 26.3166L55.8307 24.4445C53.3208 25.4707 50.6824 26.212 48.1017 27.0403C43.4636 28.5269 38.8043 29.9782 34.1421 31.4199C25.5954 34.0767 17.0312 36.6762 8.497 39.3397C7.77957 39.5583 7.00931 39.7408 6.3152 40.0359C4.18424 40.9676 5.98636 43.931 6.50644 45.466C7.45039 48.2205 8.40391 50.972 9.34787 53.7265C9.60977 54.483 10.4223 54.9881 11.22 54.7241C27.2669 49.5098 43.3438 44.3595 59.6202 39.9325L57.7481 38.9349C59.5082 44.1273 61.2778 49.3168 63.0379 54.5092C63.4318 55.6646 64.7151 55.8276 65.5787 55.094C75.5354 46.4982 84.2875 35.5618 88.2015 22.8487C88.7681 21.0034 85.8504 20.314 85.2838 22.1593L85.2655 22.1335Z" fill="#201B28"/>
<path d="M62.5225 46.094C68.9622 41.7375 74.605 36.2754 79.1128 29.936C80.0353 28.6408 81.3391 27.1562 81.5744 25.5269C81.8179 23.8218 80.6487 22.5578 79.3668 21.6103C76.2967 19.3574 72.936 17.4545 69.4951 15.8373C65.5887 13.9961 61.4945 12.5675 57.308 11.5226C56.3683 11.2862 56.0203 12.7513 56.96 12.9876C61.3037 14.0683 65.5257 15.5729 69.5619 17.5314C71.4768 18.4637 73.3356 19.4862 75.1508 20.6057C76.116 21.2001 77.0679 21.8195 77.997 22.4668C79.0192 23.1798 80.3813 24.0819 80.0591 25.5287C79.8477 26.4817 79.0777 27.3854 78.5448 28.1751C77.8509 29.1915 77.1197 30.1879 76.3605 31.1615C75.0288 32.8636 73.626 34.5038 72.1271 36.0687C68.9796 39.3592 65.4905 42.2833 61.7201 44.8332C60.9216 45.3692 61.7174 46.6425 62.5254 46.1036L62.5225 46.094Z" fill="#201B28"/>
<path d="M44.1813 21.1054C36.2898 23.7507 28.4106 26.4028 20.519 29.0482C18.6874 29.6586 19.562 32.5283 21.3936 31.9179C29.2852 29.2725 37.1643 26.6204 45.0559 23.9751C46.8875 23.3646 46.0129 20.4949 44.1813 21.1054Z" fill="#201B28"/>
<path d="M31.9547 19.7821L26.2249 21.5282C25.4787 21.7556 24.9529 22.6372 25.2273 23.4004C25.5017 24.1635 26.2959 24.6428 27.0994 24.3979L32.8292 22.6518C33.5754 22.4244 34.1012 21.5428 33.8268 20.7797C33.5524 20.0165 32.7582 19.5372 31.9547 19.7821Z" fill="#201B28"/>
<path d="M65.8456 35.1813C67.6918 34.6186 66.8172 31.7489 64.9711 32.3116C63.1249 32.8742 63.9994 35.7439 65.8456 35.1813Z" fill="#201B28"/>
<path d="M73.5878 28.6506C75.434 28.088 74.5594 25.2183 72.7132 25.7809C70.8671 26.3435 71.7416 29.2132 73.5878 28.6506Z" fill="#201B28"/>
</g>
<defs>
<clipPath id="clip0_312_92">
<rect width="85.2" height="48.2" fill="white" transform="translate(0 24.8367) rotate(-16.9484)"/>
</clipPath>
</defs>
</svg>
