<svg width="6545" height="1080" viewBox="0 0 6545 1080" fill="none" xmlns="http://www.w3.org/2000/svg">
<path d="M170.5 274L872 256.5M170.5 274L111 629.5M170.5 274L224.5 -36L857.5 -49.5M111 629.5L879.5 451M111 629.5L12 1209.5L914.5 1153.5M857.5 -49.5L885.191 571M857.5 -49.5L1349.5 -36M914.5 1153.5L885.191 571M914.5 1153.5L1556.5 1132.5M885.191 571L1469.5 638.5L2301.5 709M1349.5 -36L1404.03 295M1349.5 -36L2264.15 -36M1556.5 1132.5L1404.03 295M1556.5 1132.5L2301.5 1116.5M1404.03 295L2283 344.5M2264.15 -36L2264.15 6.5M2264.15 -36L3868 -49M2301.5 640.5L2301.5 1116.5M2301.5 640.5L2264.15 6.5M2301.5 640.5L2615 675.5M2301.5 1116.5L3837.5 1116.5M2264.15 6.5L2712 286M2712 286L2615 675.5M2712 286L3023.5 248.908M3598 180.5L3868 -49M3598 180.5L3023.5 248.908M3598 180.5L3662 444.5M3868 -49L5750 -35.5M2615 675.5L3152.5 728.5M3023.5 248.908L3109.87 570M3152.5 728.5L3109.87 570M3152.5 728.5L3750 787M3109.87 570L3662 444.5M3662 444.5L3694.5 571M3750 787L3837.5 1116.5M3750 787L3694.5 571M3837.5 1116.5L4616 1116.5M3694.5 571L4812 435.485M5636.5 335.5L5750 -35.5M5636.5 335.5L4812 435.485M5636.5 335.5L5931 1134.5M5750 -35.5L6532.5 -35.5L6355 1118L5931 1134.5M4812 435.485L4616 1116.5M4616 1116.5L5931 1134.5" stroke="white" stroke-width="20"/>
</svg>
