<svg width="105" height="125" viewBox="0 0 105 125" fill="none" xmlns="http://www.w3.org/2000/svg">
<path d="M103.155 33.8303C104.548 36.7869 105.165 40.2574 104.959 43.8765C104.64 49.2649 102.494 54.9267 98.9082 59.8232C96.0323 63.7617 92.4021 66.9697 88.4288 69.0803L87.6066 69.5262L88.0067 70.3705C88.1443 70.6788 88.2801 70.9761 88.4178 71.2844C90.0952 75.199 88.4985 86.6493 86.0888 103.978C81.842 134.502 74.857 184.764 78.3605 249.465H21.2048C30.1774 150.906 21.7077 113.692 17.0956 93.4526C14.7208 83.0191 13.5224 77.7794 16.4331 71.0899C16.5707 70.7926 16.7065 70.4842 16.8442 70.1888L17.2443 69.3445L16.4221 68.8986C12.4616 66.7642 8.85344 63.5341 5.98859 59.5717C1.2848 53.0657 -0.803731 45.4971 0.280911 38.8075C0.726881 35.9886 2.23363 30.725 7.2329 27.1077C10.2684 24.9164 13.9573 23.8207 17.9178 23.9235L18.8997 23.9455L18.9217 22.9527C19.0245 19.0949 19.7659 15.4868 21.1369 12.2457C22.5978 8.76422 24.6991 5.92139 27.3584 3.79799C29.6874 1.94804 32.3008 0.749607 35.1547 0.259591C38.0085 -0.243272 40.8733 -0.0138639 43.6942 0.933134C46.6856 1.93702 49.4477 3.71907 51.8905 6.20769L52.586 6.9161L53.2944 6.20769C54.2983 5.2038 55.3719 4.30085 56.4915 3.51352C60.6465 0.637656 65.4641 -0.481857 70.0651 0.351354C74.6771 1.17355 78.7973 3.92462 81.675 8.06865C84.5068 12.1558 86.0576 17.3606 86.1732 23.1362L86.1953 24.1291L87.1771 24.107C91.1376 23.9933 94.8247 25.1348 97.851 27.3481C100.134 29.0256 101.914 31.1948 103.159 33.8321L103.155 33.8303Z" fill="url(#paint0_linear_152_41575)"/>
<path d="M52.4816 48.7896C43.3145 49.0079 41.1727 57.5823 32.8736 65.3712C20.6966 76.7976 22.9926 86.7374 30.4346 88.8167C37.8766 90.8961 44.2376 82.5144 52.3183 82.6943C52.344 82.6943 52.3678 82.6943 52.3935 82.6943C52.4192 82.6943 52.4431 82.6943 52.4688 82.6943C60.5495 82.5566 66.8665 90.9713 74.3195 88.9323C81.7725 86.8915 84.1198 76.9646 72.0052 65.4758C63.7465 57.6429 61.6506 49.0575 52.4835 48.7914L52.4816 48.7896Z" fill="url(#paint1_linear_152_41575)"/>
<path d="M30.3758 41.9366C35.4283 48.9216 35.8724 57.2225 31.3705 60.4801C26.8686 63.7377 19.1219 60.715 14.0713 53.7318C9.01877 46.7468 8.57463 38.4459 13.0765 35.1883C17.5785 31.9307 25.3251 34.9534 30.3758 41.9366Z" fill="url(#paint2_linear_152_41575)"/>
<path d="M74.6218 42.0543C69.5326 49.0118 69.0444 57.3109 73.5298 60.5924C78.0152 63.872 85.7766 60.8915 90.8658 53.934C95.955 46.9765 96.4432 38.6774 91.9578 35.396C87.4724 32.1145 79.711 35.0968 74.6218 42.0543Z" fill="url(#paint3_linear_152_41575)"/>
<path d="M50.1712 24.4503C51.7422 33.4046 48.3341 41.4834 42.5622 42.4946C36.7902 43.5077 30.8385 37.0696 29.2675 28.1153C27.6965 19.1611 31.1046 11.0822 36.8765 10.071C42.6484 9.05791 48.6002 15.496 50.1712 24.4503Z" fill="url(#paint4_linear_152_41575)"/>
<path d="M54.9211 24.4631C53.3042 33.4082 56.6682 41.5054 62.4346 42.5478C68.201 43.5902 74.1877 37.1833 75.8046 28.2382C77.4214 19.2931 74.0574 11.1959 68.291 10.1535C62.5246 9.11108 56.5379 15.518 54.9211 24.4631Z" fill="url(#paint5_linear_152_41575)"/>
<defs>
<linearGradient id="paint0_linear_152_41575" x1="50.3048" y1="-0.000879185" x2="50.3048" y2="206.991" gradientUnits="userSpaceOnUse">
<stop stop-color="#11526B"/>
<stop offset="1" stop-color="#071C1C"/>
</linearGradient>
<linearGradient id="paint1_linear_152_41575" x1="52.3985" y1="48.7896" x2="52.3985" y2="89.2511" gradientUnits="userSpaceOnUse">
<stop stop-color="#FEB1BC"/>
<stop offset="1" stop-color="#986A71"/>
</linearGradient>
<linearGradient id="paint2_linear_152_41575" x1="22.2235" y1="33.8773" x2="22.2235" y2="61.7911" gradientUnits="userSpaceOnUse">
<stop stop-color="#FEB1BC"/>
<stop offset="1" stop-color="#986A71"/>
</linearGradient>
<linearGradient id="paint3_linear_152_41575" x1="82.7438" y1="34.0623" x2="82.7438" y2="61.9253" gradientUnits="userSpaceOnUse">
<stop stop-color="#FEB1BC"/>
<stop offset="1" stop-color="#986A71"/>
</linearGradient>
<linearGradient id="paint4_linear_152_41575" x1="39.7193" y1="9.96606" x2="39.7193" y2="42.5995" gradientUnits="userSpaceOnUse">
<stop stop-color="#FEB1BC"/>
<stop offset="1" stop-color="#986A71"/>
</linearGradient>
<linearGradient id="paint5_linear_152_41575" x1="65.3628" y1="10.0424" x2="65.3628" y2="42.659" gradientUnits="userSpaceOnUse">
<stop stop-color="#FEB1BC"/>
<stop offset="1" stop-color="#986A71"/>
</linearGradient>
</defs>
</svg>
